<?xml version="1.0" encoding="UTF-8"?>
<svg version="1.1" xmlns="http://www.w3.org/2000/svg" width="474" height="474">
<path d="M0 0 C1.31485886 0.00323273 1.31485886 0.00323273 2.65628052 0.00653076 C15.723124 0.05797795 28.37927178 0.52475372 41.1875 3.3125 C42.16638184 3.51649414 43.14526367 3.72048828 44.15380859 3.93066406 C70.75059485 9.55887665 95.33493715 19.27288923 118.625 33.375 C119.39465088 33.8400293 120.16430176 34.30505859 120.95727539 34.78417969 C122.74057583 35.89887196 124.47100404 37.0974523 126.1875 38.3125 C126.1875 38.9725 126.1875 39.6325 126.1875 40.3125 C126.86941406 40.53292969 127.55132812 40.75335938 128.25390625 40.98046875 C132.01930258 42.69018932 134.92676853 45.03267675 138.125 47.625 C139.01735352 48.3355957 139.01735352 48.3355957 139.92773438 49.06054688 C141.68932317 50.46789268 143.43994974 51.88777429 145.1875 53.3125 C145.98051514 53.95324463 145.98051514 53.95324463 146.78955078 54.60693359 C158.63891523 64.29635633 168.97271791 76.38290786 177.99902344 88.70458984 C179.16699236 90.28475486 180.36844934 91.83999021 181.5703125 93.39453125 C215.89048432 138.49391276 227.52798143 198.47402205 220.66796875 253.93994141 C216.26145179 285.46311086 204.71578112 325.95546593 182.4921875 349.80078125 C181.09072882 351.42462708 180.09524489 353.06014593 179.0625 354.9375 C177.33199623 358.05240678 175.58168754 360.67889371 173.1875 363.3125 C172.5275 363.3125 171.8675 363.3125 171.1875 363.3125 C170.92300049 363.89459229 170.65850098 364.47668457 170.38598633 365.07641602 C158.87474657 386.55358956 132.40853552 403.04328303 112.1875 415.3125 C111.19105469 415.95058594 110.19460938 416.58867187 109.16796875 417.24609375 C86.51538867 431.12813111 60.21617801 438.89483725 34.1875 443.3125 C33.14432617 443.49256592 33.14432617 443.49256592 32.08007812 443.67626953 C-14.65223521 451.32441154 -64.41589681 441.60297864 -105.8125 419.3125 C-106.80121094 418.80074219 -107.78992188 418.28898437 -108.80859375 417.76171875 C-126.93651261 408.22206216 -143.08226317 395.12873563 -157.4765625 380.62890625 C-159.8013754 378.23097403 -159.8013754 378.23097403 -162.625 376.125 C-167.06118533 372.49436239 -170.31643713 367.81500522 -173.8125 363.3125 C-174.451875 362.5390625 -175.09125 361.765625 -175.75 360.96875 C-192.3436723 340.89575931 -204.93663752 317.10395234 -212.8125 292.3125 C-213.04227539 291.61576172 -213.27205078 290.91902344 -213.50878906 290.20117188 C-231.55162331 235.22570821 -225.91183043 172.8799259 -199.890625 121.421875 C-194.0008784 110.16587221 -187.3622016 99.52388472 -179.8125 89.3125 C-179.36068359 88.69987305 -178.90886719 88.08724609 -178.44335938 87.45605469 C-174.19949176 81.73988679 -169.92071142 76.29449108 -164.8125 71.3125 C-163.60990203 70.0905825 -162.40956852 68.8664341 -161.2109375 67.640625 C-148.14282199 54.35505916 -134.33049623 43.59069768 -118.8125 33.3125 C-118.21147461 32.91111816 -117.61044922 32.50973633 -116.99121094 32.09619141 C-96.24102933 18.33968195 -72.37525661 10.00458797 -48.25 4.375 C-47.4561792 4.18776367 -46.6623584 4.00052734 -45.84448242 3.80761719 C-30.72927808 0.53201847 -15.40779902 -0.06868561 0 0 Z M-83.8125 46.3125 C-84.49521973 46.61800781 -85.17793945 46.92351563 -85.88134766 47.23828125 C-98.92996913 53.15014699 -110.72837564 61.29286897 -121.8125 70.3125 C-123.08287109 71.30636719 -123.08287109 71.30636719 -124.37890625 72.3203125 C-135.49550428 81.14401335 -145.16027469 91.06312301 -153.8125 102.3125 C-154.2441748 102.86776367 -154.67584961 103.42302734 -155.12060547 103.99511719 C-162.30610351 113.28499432 -168.42462969 122.87864833 -173.8125 133.3125 C-174.33239502 134.31337646 -174.33239502 134.31337646 -174.86279297 135.33447266 C-197.70246916 179.90885246 -200.80048616 232.51761781 -186.8125 280.3125 C-185.88635864 283.01029602 -184.86236775 285.66085774 -183.8125 288.3125 C-183.38710937 289.45589844 -182.96171875 290.59929687 -182.5234375 291.77734375 C-176.2407589 308.10863403 -167.63969915 322.86904467 -157.8125 337.3125 C-157.36068359 337.98764648 -156.90886719 338.66279297 -156.44335938 339.35839844 C-155.28586443 341.04718864 -154.055089 342.68530011 -152.8125 344.3125 C-152.1525 344.3125 -151.4925 344.3125 -150.8125 344.3125 C-150.565 344.87710937 -150.3175 345.44171875 -150.0625 346.0234375 C-147.49711548 350.7212979 -143.45604288 354.43388983 -139.8125 358.3125 C-139.04550781 359.13363281 -138.27851563 359.95476562 -137.48828125 360.80078125 C-103.01283535 396.52987973 -53.1341264 415.59128895 -3.96313477 416.61499023 C34.82767385 416.77262956 73.96016324 406.25270012 106.1875 384.3125 C106.74356934 383.93706055 107.29963867 383.56162109 107.87255859 383.17480469 C114.64175189 378.98632764 114.64175189 378.98632764 119.2578125 372.84375 C119.15803482 369.25175338 117.77520777 368.06635708 115.3125 365.5 C114.48878906 364.64019531 113.66507812 363.78039062 112.81640625 362.89453125 C106.82272265 355.93784456 106.82272265 355.93784456 99.1875 352.3125 C99.1875 351.6525 99.1875 350.9925 99.1875 350.3125 C86.65717194 344.30561123 86.65717194 344.30561123 73.1875 341.3125 C72.49011719 341.24289062 71.79273438 341.17328125 71.07421875 341.1015625 C52.04300174 340.19697083 36.17412616 349.73149432 21.9296875 361.1171875 C20.1875 362.3125 20.1875 362.3125 17.8125 362.3125 C5.88333494 357.76805617 -2.30769049 342.2220196 -9.8125 332.3125 C-10.57046875 331.32636719 -10.57046875 331.32636719 -11.34375 330.3203125 C-15.0801281 325.31452389 -17.93555203 319.84405571 -20.8125 314.3125 C-21.12622559 313.71228027 -21.43995117 313.11206055 -21.76318359 312.49365234 C-31.42561684 293.92004595 -39.048866 274.57632405 -42.875 253.9375 C-45.53795999 239.66321086 -49.73404758 227.24005179 -61.8125 218.3125 C-66.96605921 215.10559089 -72.96280337 215.83611752 -78.8125 216.3125 C-81.66746293 217.06890375 -84.08924996 218.11809209 -86.8125 219.3125 C-103.12705761 222.65675835 -119.77107295 219.16727633 -133.8125 210.3125 C-145.03880573 201.90890045 -154.45439462 189.54608651 -157.125 175.5625 C-159.00465863 161.428913 -158.77615412 146.38622007 -150.80078125 134.08203125 C-149.56869732 132.21376885 -149.56869732 132.21376885 -149.8125 129.3125 C-149.1525 129.3125 -148.4925 129.3125 -147.8125 129.3125 C-147.1525 128.301875 -146.4925 127.29125 -145.8125 126.25 C-138.74184622 115.94645142 -124.65967825 110.21388391 -112.85302734 107.65820312 C-95.80489135 104.76993314 -82.0448605 109.25889763 -67.90234375 118.69067383 C-67.17015625 119.17044678 -66.43796875 119.65021973 -65.68359375 120.14453125 C-65.03318115 120.58514893 -64.38276855 121.0257666 -63.71264648 121.47973633 C-61.83541532 122.48437205 -61.83541532 122.48437205 -59.71508789 122.1237793 C-56.49791419 120.75194968 -55.39998829 118.311089 -53.8125 115.3125 C-53.99173471 112.17589261 -55.01725806 111.00536291 -56.8125 108.3125 C-56.71549003 102.588912 -55.32735412 98.78437444 -52.45703125 93.87890625 C-49.99399943 91.53288307 -48.17698632 91.39456064 -44.8125 91.3125 C-41.77734375 92.60546875 -41.77734375 92.60546875 -38.75 94.5 C-37.74839844 95.11230469 -36.74679688 95.72460938 -35.71484375 96.35546875 C-28.14249851 101.4614512 -28.14249851 101.4614512 -26.625 105.375 C-26.89461287 111.03687029 -29.72123725 117.22123725 -33.8125 121.3125 C-35.81200636 121.35693347 -37.81288436 121.35170815 -39.8125 121.3125 C-41.1325 121.3125 -42.4525 121.3125 -43.8125 121.3125 C-44.1425 122.6325 -44.4725 123.9525 -44.8125 125.3125 C-45.4725 125.3125 -46.1325 125.3125 -46.8125 125.3125 C-47.1425 126.6325 -47.4725 127.9525 -47.8125 129.3125 C-43.72406085 132.82374774 -39.39005672 135.36779688 -34.6875 137.9375 C-33.26766337 138.72032884 -31.84837108 139.50414598 -30.4296875 140.2890625 C-29.80690918 140.63018066 -29.18413086 140.97129883 -28.54248047 141.32275391 C-26.9234972 142.24899695 -25.36445403 143.27786398 -23.8125 144.3125 C-22.4925 144.3125 -21.1725 144.3125 -19.8125 144.3125 C-19.173125 143.219375 -18.53375 142.12625 -17.875 141 C-17.51535156 140.38511719 -17.15570313 139.77023438 -16.78515625 139.13671875 C-15.67348753 137.17430445 -15.67348753 137.17430445 -14.8125 134.3125 C-15.493125 133.838125 -16.17375 133.36375 -16.875 132.875 C-19.02053835 130.03735251 -19.10948452 129.45666342 -18.875 126.0625 C-18.06374101 121.11300073 -16.19041366 117.04148896 -12.8125 113.3125 C-9.25431715 111.80027229 -6.50183314 112.36381434 -2.8125 113.3125 C-2.8125 113.9725 -2.8125 114.6325 -2.8125 115.3125 C-0.66785214 116.87538033 -0.66785214 116.87538033 2 118.375 C2.89332031 118.90222656 3.78664062 119.42945313 4.70703125 119.97265625 C7.20546517 121.41439695 7.20546517 121.41439695 10.1875 122.3125 C11.86061633 127.5708656 10.95653621 130.65720279 8.6875 135.6875 C5.78739222 141.1091467 5.78739222 141.1091467 1.5 142.5625 C0.406875 142.48 -0.68625 142.3975 -1.8125 142.3125 C-2.8025 142.3125 -3.7925 142.3125 -4.8125 142.3125 C-6.32224323 143.96860964 -6.32224323 143.96860964 -7.5625 146.125 C-8.01109375 146.83269531 -8.4596875 147.54039062 -8.921875 148.26953125 C-10.14058071 150.44325012 -10.14058071 150.44325012 -8.8125 153.3125 C-6.35536773 154.86483988 -3.93455731 156.26357631 -1.375 157.625 C0.08264776 158.42074672 1.53967936 159.21762315 2.99609375 160.015625 C3.71007324 160.40427734 4.42405273 160.79292969 5.15966797 161.19335938 C9.24032394 163.44543342 13.21446589 165.8771065 17.1875 168.3125 C21.87506829 164.04389574 21.87506829 164.04389574 24.1875 158.3125 C23.713125 157.735 23.23875 157.1575 22.75 156.5625 C20.58551004 153.44563446 20.98876167 151.36726033 21.546875 147.703125 C22.62505801 143.67966156 24.41706394 140.42041128 27.1875 137.3125 C29.5 136.0625 29.5 136.0625 32.1875 136.3125 C38.30617599 138.53136052 46.88566368 142.71588076 50.4375 148.265625 C51.54426677 151.28617598 51.30987667 154.13070652 51.1875 157.3125 C50.5275 157.3125 49.8675 157.3125 49.1875 157.3125 C48.97996094 157.87839844 48.77242187 158.44429687 48.55859375 159.02734375 C47.59523492 161.32086331 46.64761853 163.29472687 45.1875 165.3125 C40.85895876 166.62652145 38.58310009 166.41140002 34.1875 165.3125 C31.7125 169.7675 31.7125 169.7675 29.1875 174.3125 C32.48316054 177.04459999 35.79435876 179.38668641 39.48828125 181.546875 C40.46474609 182.12050781 41.44121094 182.69414062 42.44726562 183.28515625 C43.45466797 183.87167969 44.46207031 184.45820313 45.5 185.0625 C46.52673828 185.66449219 47.55347656 186.26648438 48.61132812 186.88671875 C51.13467651 188.36551827 53.66009623 189.84064588 56.1875 191.3125 C59.44254403 188.21886311 61.3218981 185.41682418 63.1875 181.3125 C62.5275 180.3225 61.8675 179.3325 61.1875 178.3125 C60.5275 178.3125 59.8675 178.3125 59.1875 178.3125 C59.04464286 170.88392857 59.04464286 170.88392857 60.1875 167.3125 C60.8475 167.3125 61.5075 167.3125 62.1875 167.3125 C62.620625 166.36375 63.05375 165.415 63.5 164.4375 C65.1875 161.3125 65.1875 161.3125 68.1875 159.3125 C73.79584409 159.44087411 77.20410688 162.06008881 81.5 165.3125 C82.13228516 165.7765625 82.76457031 166.240625 83.41601562 166.71875 C87.90102041 170.02602041 87.90102041 170.02602041 89.1875 171.3125 C89.89446384 177.08603799 88.5070349 180.05237982 85.28125 184.61328125 C84.00708467 186.25598807 84.00708467 186.25598807 84.1875 188.3125 C82.33125 188.5290625 82.33125 188.5290625 80.4375 188.75 C74.91257322 189.22654616 74.91257322 189.22654616 70.375 192.0625 C68.96949063 194.25271686 68.96949063 194.25271686 69.33984375 196.7734375 C70.43230872 200.045798 71.55411867 200.58366264 74.5625 202.1875 C79.42360848 204.87261731 84.02977128 207.8066638 88.64453125 210.89453125 C91.2154161 212.32806612 93.2888724 212.91179206 96.1875 213.3125 C99.28732115 209.56117114 99.28732115 209.56117114 100 205 C99.30597389 203.32085708 99.30597389 203.32085708 98.1875 202.3125 C97.06483562 195.12744798 99.18305088 190.19444494 103.1875 184.3125 C103.5175 183.9825 103.8475 183.6525 104.1875 183.3125 C112.59525257 183.3125 119.42827554 188.80635036 126.1875 193.3125 C128.10668124 198.50557865 126.93784439 201.626235 124.6875 206.625 C121.89618847 211.87345197 121.89618847 211.87345197 119.2265625 213.52734375 C117.3125 214.0625 117.3125 214.0625 114.1875 214.3125 C114.1875 213.6525 114.1875 212.9925 114.1875 212.3125 C112.30091126 212.27724868 112.30091126 212.27724868 110.1875 213.3125 C108.59248463 215.55414322 107.44206982 217.84816643 106.1875 220.3125 C110.50349975 223.00820748 114.83975357 225.66849563 119.1875 228.3125 C119.82284668 228.70195801 120.45819336 229.09141602 121.11279297 229.49267578 C122.98404866 230.63375519 124.86520836 231.75645309 126.75 232.875 C127.33281738 233.23335937 127.91563477 233.59171875 128.51611328 233.9609375 C130.89500225 235.3531873 132.65660296 236.31983536 135.44921875 236.28125 C137.78098236 234.98175028 138.36192317 233.67004787 139.4375 231.25 C139.77265625 230.51652344 140.1078125 229.78304687 140.453125 229.02734375 C140.69546875 228.46144531 140.9378125 227.89554688 141.1875 227.3125 C140.5275 226.77625 139.8675 226.24 139.1875 225.6875 C137.1875 223.3125 137.1875 223.3125 136.625 220.6875 C137.44566461 215.76351232 139.50618405 211.51196949 142.1875 207.3125 C145.1875 205.3125 145.1875 205.3125 147.390625 205.41015625 C151.25722178 206.65761974 154.48989776 208.62763215 157.9375 210.75 C158.62199219 211.15798828 159.30648438 211.56597656 160.01171875 211.98632812 C165.05482076 215.04714152 165.05482076 215.04714152 166.1875 217.3125 C166.98878203 223.85630324 164.73668015 228.03175015 161.1875 233.3125 C159.1875 235.3125 159.1875 235.3125 156.8125 235.4375 C155.94625 235.39625 155.08 235.355 154.1875 235.3125 C152.8675 235.3125 151.5475 235.3125 150.1875 235.3125 C148.2075 239.2725 148.2075 239.2725 146.1875 243.3125 C146.744375 243.66441406 147.30125 244.01632812 147.875 244.37890625 C157.10809675 250.35234553 165.58221155 256.49663464 169.1875 267.3125 C169.7072049 273.49898721 169.3558553 278.15240548 166.87109375 283.8828125 C165.10617493 290.15583827 164.93862986 298.72808052 167.08984375 304.90234375 C168.22398144 306.9884283 168.22398144 306.9884283 170.1875 309.3125 C173.22621459 308.65269201 173.22621459 308.65269201 174.2590332 306.60449219 C174.58218506 305.86360352 174.90533691 305.12271484 175.23828125 304.359375 C175.6041333 303.52365967 175.96998535 302.68794434 176.34692383 301.8269043 C176.72743896 300.91465088 177.1079541 300.00239746 177.5 299.0625 C177.89662842 298.11737549 178.29325684 297.17225098 178.7019043 296.19848633 C187.31958489 275.12858046 192.48101539 252.10430783 193.1875 229.3125 C193.22746094 228.27351562 193.26742188 227.23453125 193.30859375 226.1640625 C194.03390637 189.55710769 184.7574042 149.61508693 163.53466797 119.33447266 C162.14331937 117.24618903 161.00119147 115.11567617 159.875 112.875 C157.36832661 108.24047524 154.06493266 104.64647669 150.47265625 100.8203125 C147.61517221 97.68440694 145.10135005 94.35081047 142.59765625 90.9296875 C142.13230469 90.39601562 141.66695313 89.86234375 141.1875 89.3125 C140.5275 89.3125 139.8675 89.3125 139.1875 89.3125 C138.5275 87.9925 137.8675 86.6725 137.1875 85.3125 C136.5275 85.3125 135.8675 85.3125 135.1875 85.3125 C134.5275 83.9925 133.8675 82.6725 133.1875 81.3125 C132.5275 81.3125 131.8675 81.3125 131.1875 81.3125 C131.1875 80.6525 131.1875 79.9925 131.1875 79.3125 C129.61809199 77.87437327 127.97875965 76.5121995 126.3125 75.1875 C125.29542969 74.37796875 124.27835937 73.5684375 123.23046875 72.734375 C122.22628906 71.93515625 121.22210938 71.1359375 120.1875 70.3125 C119.42050781 69.65765625 118.65351563 69.0028125 117.86328125 68.328125 C93.30127958 47.58116373 61.53492837 35.77729466 30.1875 30.3125 C29.51638184 30.19390625 28.84526367 30.0753125 28.15380859 29.953125 C-9.80899844 23.58015315 -49.07150098 30.56343801 -83.8125 46.3125 Z M-79.75 142.9375 C-81.43242272 146.69820962 -81.46938915 150.27010525 -80.8125 154.3125 C-78.76968946 157.7415034 -76.71541913 160.2283558 -72.8125 161.3125 C-68.02644931 161.23653094 -65.79907177 161.00519933 -61.875 158.25 C-59.09217783 154.2865866 -58.8125 152.16099853 -58.8125 147.3125 C-60.38066642 143.59842163 -62.34208925 141.35391809 -65.8125 139.3125 C-71.1251466 137.3023094 -75.54775683 139.41303798 -79.75 142.9375 Z M-39.6875 166.625 C-41.52847097 171.02287509 -41.24430512 174.01708464 -39.75 178.5 C-37.13192628 182.30042959 -35.29322675 183.22845321 -30.8125 184.3125 C-26.30982361 183.70665816 -22.88595594 182.45101388 -19.75 179.125 C-18.5084212 175.40026361 -18.09754212 172.19369994 -18.8125 168.3125 C-20.91192525 164.86344424 -22.9459581 162.6013473 -26.8125 161.3125 C-32.14991312 160.6102088 -36.31047451 162.46000189 -39.6875 166.625 Z M-0.8125 187.3125 C-3.62975233 191.5383785 -3.61208384 195.34874688 -2.8125 200.3125 C-0.62227082 203.13674288 1.01767207 204.72758603 4.1875 206.3125 C9.14884453 206.6869411 12.30072241 206.55148133 16.1875 203.3125 C18.51867811 199.89343877 19.1875 197.90206112 19.1875 193.75 C18.00133817 189.67256871 16.42465865 187.99697302 13.1875 185.3125 C8.15793255 182.79771627 3.70756756 184.53882218 -0.8125 187.3125 Z M40.1875 209.3125 C37.88282448 212.19334439 37.21809902 214.07207911 36.75 217.75 C37.27143274 221.99595227 38.45667041 224.05067577 41.1875 227.3125 C44.95034011 229.68403788 47.77137704 229.50842448 52.0625 228.9296875 C55.30070256 227.98918014 56.52756328 226.14822522 58.1875 223.3125 C59.76205739 220.16338521 59.53549118 217.79241184 59.1875 214.3125 C57.41469439 211.33577416 55.33141985 208.88445993 52.1875 207.3125 C45.81063587 206.80875001 45.81063587 206.80875001 40.1875 209.3125 Z M76.9375 233 C73.93884229 236.96251197 73.96634096 240.70119843 74.625 245.5 C76.87767586 249.55481656 79.80984582 250.99511248 84.1875 252.3125 C87.89264859 252.3125 89.73168494 251.57148583 92.9375 249.75 C95.90312529 246.53723927 97.00233831 243.68063265 97.1875 239.3125 C95.76772654 235.13205594 94.09657565 232.43456964 90.1875 230.3125 C84.62941227 228.77515659 81.49121464 229.58471402 76.9375 233 Z M117.1875 257.3125 C114.84617122 260.32277985 114.76929965 263.59295791 114.8671875 267.34765625 C115.38362417 270.51555433 116.89996402 272.15204935 119.1875 274.3125 C122.45684278 276.60103994 125.2573152 276.78412218 129.1875 276.3125 C132.22272895 274.67814595 134.47102297 273.256947 136.5625 270.5 C137.50457395 267.20274117 137.60010656 264.7312401 137.1875 261.3125 C135.40273759 258.34010759 133.33541945 255.88645973 130.1875 254.3125 C124.89445745 253.96541524 121.45391586 253.79898106 117.1875 257.3125 Z " fill="#FBFAFA" transform="translate(236.8125,12.6875)"/>
<path d="M0 0 C7.15399012 1.21994358 14.67034041 6.40669216 20.125 11.0625 C21.68341734 15.13170083 21.50879203 17.00572054 20.015625 21.1171875 C16.09689009 29.54044758 16.09689009 29.54044758 12.6015625 31.41796875 C10.125 32.0625 10.125 32.0625 7.125 32.0625 C7.125 31.4025 7.125 30.7425 7.125 30.0625 C3.72048229 31.19733924 3.5244436 31.61527937 1.9375 34.625 C1.0403125 36.3265625 1.0403125 36.3265625 0.125 38.0625 C1.115 39.0525 2.105 40.0425 3.125 41.0625 C0.155 40.4025 -2.815 39.7425 -5.875 39.0625 C-6.205 37.4125 -6.535 35.7625 -6.875 34.0625 C-8.36 34.5575 -8.36 34.5575 -9.875 35.0625 C-9.875 34.4025 -9.875 33.7425 -9.875 33.0625 C-12.185 32.4025 -14.495 31.7425 -16.875 31.0625 C-16.545 30.4025 -16.215 29.7425 -15.875 29.0625 C-14.225 29.3925 -12.575 29.7225 -10.875 30.0625 C-8.43633897 26.74629787 -8.43633897 26.74629787 -8.125 22.8125 C-8.7434658 21.07023731 -8.7434658 21.07023731 -9.875 20.0625 C-10.99226791 12.91198538 -8.93643839 7.88389503 -4.875 2.0625 C-2.875 0.0625 -2.875 0.0625 0 0 Z " fill="#F6F4F3" transform="translate(343.875,194.9375)"/>
<path d="M0 0 C0 0.66 0 1.32 0 2 C0.66 2.226875 1.32 2.45375 2 2.6875 C11.71731092 6.93882353 11.71731092 6.93882353 14.2421875 10.99609375 C15.40710465 14.07651901 14.89774526 15.82796674 14 19 C10.15591837 27.22938776 10.15591837 27.22938776 6 30 C3.26009592 29.96856707 0.71582146 29.44521663 -2 29 C-2.433125 29.928125 -2.433125 29.928125 -2.875 30.875 C-4 33 -4 33 -6 35 C-6.61875 34.34 -7.2375 33.68 -7.875 33 C-9.75637427 30.7715451 -9.75637427 30.7715451 -12 31 C-12.66 30.34 -13.32 29.68 -14 29 C-14.4125 29.66 -14.825 30.32 -15.25 31 C-15.8275 31.66 -16.405 32.32 -17 33 C-18.32 33 -19.64 33 -21 33 C-21 32.34 -21 31.68 -21 31 C-19.68 31 -18.36 31 -17 31 C-15.26337666 27.77484237 -14.1094072 24.48670834 -13 21 C-13.680625 20.525625 -14.36125 20.05125 -15.0625 19.5625 C-17.18492645 16.75541986 -17.31876641 16.17111774 -17.125 12.8125 C-16.26658473 7.4205791 -13.62267866 3.03721403 -10 -1 C-6.06329512 -2.31223496 -3.87511856 -1.24296256 0 0 Z M-10 27 C-9 29 -9 29 -9 29 Z " fill="#F4F2F2" transform="translate(234,126)"/>
<path d="M0 0 C2.39605412 1.29649961 4.59716255 2.79298539 6.8125 4.375 C7.38419922 4.76171875 7.95589844 5.1484375 8.54492188 5.546875 C11.5865708 7.67710151 13.90107059 9.37571626 15 13 C14.625 16.75 14.625 16.75 14 20 C13.34 20 12.68 20 12 20 C11.7525 21.093125 11.505 22.18625 11.25 23.3125 C10 27 10 27 8.3125 29 C4.95550805 30.45167219 2.50632251 29.77918278 -1 29 C-1.66 28.67 -2.32 28.34 -3 28 C-3.33 28.99 -3.66 29.98 -4 31 C-4.433125 30.505 -4.86625 30.01 -5.3125 29.5 C-6.99740483 27.66781808 -6.99740483 27.66781808 -10 28 C-12.20142332 30.4390706 -12.20142332 30.4390706 -14 33 C-16.66666667 32.33333333 -19.33333333 31.66666667 -22 31 C-21.4225 30.79375 -20.845 30.5875 -20.25 30.375 C-17.0573616 28.4239432 -15.68827344 26.31161329 -14 23 C-14.62024268 20.46264356 -15.14549434 18.85450566 -17 17 C-17.36790234 9.83390219 -14.73930067 4.28160871 -10 -1 C-5.9394711 -2.35350963 -4.0055184 -1.43143918 0 0 Z " fill="#F3F0EF" transform="translate(274,150)"/>
<path d="M0 0 C4.01849293 1.44733856 7.43104408 3.63520689 11.015625 5.93359375 C11.7478125 6.38927734 12.48 6.84496094 13.234375 7.31445312 C18.63134733 10.7275384 18.63134733 10.7275384 19.765625 12.99609375 C20.56397722 19.51597023 18.36688188 23.76159078 14.765625 28.99609375 C12.21272981 31.95138327 12.21272981 31.95138327 9.265625 32.24609375 C6.765625 31.99609375 6.765625 31.99609375 3.765625 30.99609375 C2.280625 32.48109375 2.280625 32.48109375 0.765625 33.99609375 C1.075 33.23296875 1.384375 32.46984375 1.703125 31.68359375 C2.44456093 29.80819698 3.12790717 27.90924723 3.765625 25.99609375 C2.115625 26.98609375 0.465625 27.97609375 -1.234375 28.99609375 C-1.234375 28.33609375 -1.234375 27.67609375 -1.234375 26.99609375 C-4.3089106 27.77248695 -4.3089106 27.77248695 -6.234375 29.99609375 C-6.234375 29.33609375 -6.234375 28.67609375 -6.234375 27.99609375 C-7.224375 28.32609375 -8.214375 28.65609375 -9.234375 28.99609375 C-8.574375 27.01609375 -7.914375 25.03609375 -7.234375 22.99609375 C-7.894375 22.45984375 -8.554375 21.92359375 -9.234375 21.37109375 C-11.234375 18.99609375 -11.234375 18.99609375 -11.796875 16.37109375 C-10.85460773 10.7174901 -8.45905614 5.22544859 -4.375 1.1328125 C-2.234375 -0.00390625 -2.234375 -0.00390625 0 0 Z " fill="#FAF8F8" transform="translate(384.234375,217.00390625)"/>
<path d="M0 0 C1.32 0 2.64 0 4 0 C4.66 0.99 5.32 1.98 6 3 C6.66 3 7.32 3 8 3 C8.66 2.34 9.32 1.68 10 1 C10.99 2.32 11.98 3.64 13 5 C12.35546875 5.18304688 11.7109375 5.36609375 11.046875 5.5546875 C8.62555056 6.90811895 8.62555056 6.90811895 8.390625 10.2578125 C8.32101563 12.17207031 8.32101563 12.17207031 8.25 14.125 C8.19328125 15.40632812 8.1365625 16.68765625 8.078125 18.0078125 C8.05234375 18.99523437 8.0265625 19.98265625 8 21 C-5.19152472 24.3502285 -5.19152472 24.3502285 -11.25 21.4375 C-14.5783025 18.48741369 -15.75250344 16.25616474 -17 12 C-16.6875 8.5625 -16.6875 8.5625 -16 6 C-15.67 6 -15.34 6 -15 6 C-14.98582031 6.59167969 -14.97164062 7.18335938 -14.95703125 7.79296875 C-14.70062935 12.04092453 -14.38481861 14.45672667 -11.875 18 C-7.68300556 20.91617005 -4.19356922 21.14623795 0.8125 20.8125 C3.0696713 20.18757658 3.0696713 20.18757658 4.25 18.4375 C5.68600979 13.77046817 6.78869668 9.77456754 4.75 5.1875 C3.25344736 3.3168092 1.77532306 1.60624467 0 0 Z " fill="#D2CCCB" transform="translate(171,152)"/>
<path d="M0 0 C3 0 3 0 6 1 C5.814375 1.721875 5.62875 2.44375 5.4375 3.1875 C4.82690916 5.93099432 4.82690916 5.93099432 5.5625 8.3125 C6.38443335 13.36151913 4.87508154 17.61193963 2.1875 21.875 C-0.24736067 24.24029322 -1.69595018 25.23161632 -5 26 C-8.8125 25.625 -8.8125 25.625 -12 25 C-9 24 -9 24 -6.125 23.75 C-2.05660814 22.77358595 -0.55094469 21.27978603 2 18 C3.26457332 14.28531588 3.18028181 12.54084542 1.9375 8.8125 C-0.42443964 5.38387794 -2.07944512 4.35711515 -6 3 C-9.75073204 2.74855688 -9.75073204 2.74855688 -13 3 C-11 1 -11 1 -8.65234375 0.83984375 C-7.30849609 0.88818359 -7.30849609 0.88818359 -5.9375 0.9375 C-4.29243023 0.99178494 -2.64583976 1.02031901 -1 1 C-0.67 0.67 -0.34 0.34 0 0 Z " fill="#D9D4D3" transform="translate(330,240)"/>
<path d="M0 0 C2.5502402 0.91547084 3.7299841 1.80800707 5.4375 3.875 C4.4475 4.535 3.4575 5.195 2.4375 5.875 C2.1075 5.215 1.7775 4.555 1.4375 3.875 C-1.08983235 3.21944881 -1.08983235 3.21944881 -3.5625 2.875 C-5.80531523 8.07833134 -7.11827239 11.21764585 -5.5625 16.875 C-6.2225 16.875 -6.8825 16.875 -7.5625 16.875 C-7.5625 17.535 -7.5625 18.195 -7.5625 18.875 C-6.9025 19.205 -6.2425 19.535 -5.5625 19.875 C-6.2225 19.875 -6.8825 19.875 -7.5625 19.875 C-7.5625 20.535 -7.5625 21.195 -7.5625 21.875 C-8.5525 21.545 -9.5425 21.215 -10.5625 20.875 C-12.04501273 17.90997454 -11.92020302 16.21356155 -11.5625 12.875 C-6.43462895 -0.31388434 -6.43462895 -0.31388434 0 0 Z " fill="#EAE7E6" transform="translate(384.5625,217.125)"/>
<path d="M0 0 C4.75 0.75 4.75 0.75 7 3 C7.66 2.67 8.32 2.34 9 2 C9 2.66 9 3.32 9 4 C9.99 4 10.98 4 12 4 C12.33 6.31 12.66 8.62 13 11 C12.01 10.67 11.02 10.34 10 10 C10.515625 10.598125 11.03125 11.19625 11.5625 11.8125 C12.036875 12.534375 12.51125 13.25625 13 14 C12.0022242 16.99332739 11.2477975 17.94766315 9 20 C8.67 19.34 8.34 18.68 8 18 C7.01 19.32 6.02 20.64 5 22 C4.01 21.67 3.02 21.34 2 21 C2.639375 20.38125 3.27875 19.7625 3.9375 19.125 C7.07197395 15.89554199 7.3921357 13.54794327 7.359375 9.03515625 C6.75960929 5.63865698 4.58659069 4.09390675 2 2 C1.34 1.34 0.68 0.68 0 0 Z " fill="#D8D3D3" transform="translate(210,174)"/>
<path d="M0 0 C3.80443255 0.54349036 5.6081779 2.03084153 8 5 C9.14695999 8.29251698 9.09971479 9.72648655 7.890625 13.04296875 C7.34921875 14.08066406 6.8078125 15.11835938 6.25 16.1875 C5.71890625 17.23292969 5.1878125 18.27835938 4.640625 19.35546875 C3 22 3 22 0 24 C-2.6875 24.125 -2.6875 24.125 -5 24 C-4.401875 23.71125 -3.80375 23.4225 -3.1875 23.125 C-0.80672208 21.95257974 -0.80672208 21.95257974 2 20 C1.11785113 17.11785113 1.11785113 17.11785113 0 15 C0.4375 12.875 0.4375 12.875 1 11 C1.66 11 2.32 11 3 11 C3.33 10.01 3.66 9.02 4 8 C4.65129797 6.65909241 5.31513275 5.32407669 6 4 C5.38125 3.71125 4.7625 3.4225 4.125 3.125 C2 2 2 2 0 0 Z " fill="#D9D5D3" transform="translate(240,132)"/>
<path d="M0 0 C3.80360117 1.34205077 6.61141079 3.04004323 9.75 5.5625 C10.52859375 6.18253906 11.3071875 6.80257812 12.109375 7.44140625 C14.97608104 9.80466185 14.97608104 9.80466185 15.375 13.0625 C14.89707785 18.08068254 12.91177512 20.99630921 10 25 C8 22 8 22 8.13671875 19.7734375 C8.31847656 18.98195312 8.50023437 18.19046875 8.6875 17.375 C8.85636719 16.57835937 9.02523438 15.78171875 9.19921875 14.9609375 C9.59560547 13.99027344 9.59560547 13.99027344 10 13 C10.99 12.67 11.98 12.34 13 12 C9.47758534 8.25743442 5.75106144 5.22996643 1.57421875 2.234375 C1.05472656 1.82703125 0.53523438 1.4196875 0 1 C0 0.67 0 0.34 0 0 Z " fill="#DAD6D4" transform="translate(312,174)"/>
<path d="M0 0 C-2.07059961 4.6190299 -4.3809701 6.92940039 -9 9 C-9 9.66 -9 10.32 -9 11 C-10.60875 11.61875 -10.60875 11.61875 -12.25 12.25 C-19.00121525 15.55275278 -23.91364536 21.60846408 -29 27 C-29.66 26.67 -30.32 26.34 -31 26 C-5.66864491 0 -5.66864491 0 0 0 Z " fill="#D7D2D1" transform="translate(104,57)"/>
<path d="M0 0 C4.00161251 1.37198143 6.99362597 2.99362597 10 6 C10.8125 9.25 10.8125 9.25 11 12 C10.01 10.68 9.02 9.36 8 8 C6.35 9.32 4.7 10.64 3 12 C1.4375 10.9375 1.4375 10.9375 0 9 C0.375 5.4375 0.375 5.4375 1 2 C0.67 1.34 0.34 0.68 0 0 Z " fill="#E7E2E1" transform="translate(200,109)"/>
<path d="M0 0 C0.99 0.33 1.98 0.66 3 1 C3.33 1.99 3.66 2.98 4 4 C4.99 4 5.98 4 7 4 C7.66 3.34 8.32 2.68 9 2 C8.44299928 5.23060419 7.70784878 7.0658223 5 9 C1.87585686 9.31241431 0.00174224 9.00058075 -3 8 C-3.99 8.99 -4.98 9.98 -6 11 C-5.34 9.35 -4.68 7.7 -4 6 C-3.34 6 -2.68 6 -2 6 C-1.34 4.02 -0.68 2.04 0 0 Z " fill="#E1DEDC" transform="translate(391,240)"/>
<path d="M0 0 C3.375 2.0625 3.375 2.0625 6 4 C3 4 3 4 0.125 2.375 C-2.84121402 0.7415413 -2.84121402 0.7415413 -5.625 1.375 C-8.92603406 3.63360225 -10.66154678 6.30126367 -12 10 C-12.48214212 12.92499552 -12.35175118 14.98498987 -12 18 C-10.66641006 20.009245 -10.66641006 20.009245 -9 21 C-9.99 23.475 -9.99 23.475 -11 26 C-12 24 -12 24 -12.4375 22.0625 C-12.96047153 19.71671263 -12.96047153 19.71671263 -15 17 C-15 9.97704641 -12.43477424 5.37584039 -8 0 C-5.01770098 -1.49114951 -3.20107966 -0.80026992 0 0 Z " fill="#BCB5B4" transform="translate(194,104)"/>
<path d="M0 0 C0.66 0.33 1.32 0.66 2 1 C1 4 1 4 -1.0625 5.5 C-1.701875 5.995 -2.34125 6.49 -3 7 C-3 7.99 -3 8.98 -3 10 C-5.375 10.625 -5.375 10.625 -8 11 C-8.66 10.34 -9.32 9.68 -10 9 C-11.65 10.32 -13.3 11.64 -15 13 C-15.66 12.67 -16.32 12.34 -17 12 C-15.10642909 10.55943648 -13.21027278 9.1225099 -11.3125 7.6875 C-10.78205078 7.28337891 -10.25160156 6.87925781 -9.70507812 6.46289062 C-6.57826326 4.10339229 -3.490287 1.7909879 0 0 Z " fill="#EAE7E7" transform="translate(121,44)"/>
<path d="M0 0 C2.475 0.99 2.475 0.99 5 2 C5 2.99 5 3.98 5 5 C5.99 5 6.98 5 8 5 C8.99 6.98 9.98 8.96 11 11 C10.34 11 9.68 11 9 11 C9.28875 11.88042969 9.5775 12.76085937 9.875 13.66796875 C10.24625 14.82941406 10.6175 15.99085938 11 17.1875 C11.37125 18.33605469 11.7425 19.48460937 12.125 20.66796875 C12.90630553 23.64320812 13.18363306 25.95283896 13 29 C11.32045298 25.87767029 10.23622033 22.7576809 9.1875 19.375 C6.92741682 12.45931477 4.03957149 6.05935723 0 0 Z " fill="#D9D3D2" transform="translate(181,236)"/>
<path d="M0 0 C3.39285118 2.99833361 4.84013094 6.57874357 6.71875 10.625 C7.94101377 12.89065967 9.13830013 14.26241345 11 16 C11.33 16.66 11.66 17.32 12 18 C12.66 18.33 13.32 18.66 14 19 C16.21359223 24.3592233 16.21359223 24.3592233 15 28 C10.711723 23.21692181 7.94904523 17.65673638 5 12 C4.50628906 11.05382812 4.01257813 10.10765625 3.50390625 9.1328125 C0 2.28381728 0 2.28381728 0 0 Z " fill="#D7D0D1" transform="translate(210,315)"/>
<path d="M0 0 C1 2 1 2 0.9375 4.75 C1.00843137 8.4384311 1.2235793 10.74322872 3 14 C5.59924824 15.15076849 8.20579274 15.5624166 11 16 C12.33627148 16.32135248 13.67061331 16.65125954 15 17 C13.5882217 17.53394179 12.17029756 18.05165104 10.75 18.5625 C9.96109375 18.85253906 9.1721875 19.14257812 8.359375 19.44140625 C5.80896548 20.04522837 4.44677771 19.8473932 2 19 C2 18.01 2 17.02 2 16 C1.34 15.67 0.68 15.34 0 15 C-1.14176362 10.31876916 -1.1622228 5.78557255 -1 1 C-0.67 0.67 -0.34 0.34 0 0 Z " fill="#DCD8D6" transform="translate(196,180)"/>
<path d="M0 0 C4.19360449 0.67097672 7.40334352 2.8558394 11 5 C10.01 5.495 10.01 5.495 9 6 C8.67 6.99 8.34 7.98 8 9 C5.03 8.01 2.06 7.02 -1 6 C-1 2 -1 2 0 0 Z " fill="#F6F6F4" transform="translate(202,151)"/>
<path d="M0 0 C0.33 0 0.66 0 1 0 C1.81572257 4.02018644 2.62699975 8.04125772 3.4375 12.0625 C3.78264648 13.7630957 3.78264648 13.7630957 4.13476562 15.49804688 C5.23883893 20.98641129 6.29855251 26.44485836 7 32 C4.04816899 29.04816899 3.91336012 26.04488053 3 22 C2.34 22 1.68 22 1 22 C0.34 21.34 -0.32 20.68 -1 20 C-0.63110352 18.11816406 -0.63110352 18.11816406 0 16 C0.06926968 13.24029592 0.0941736 10.50803958 0.0625 7.75 C0.05798828 7.00492187 0.05347656 6.25984375 0.04882812 5.4921875 C0.03709246 3.6614236 0.0191585 1.83070127 0 0 Z " fill="#D5D0CD" transform="translate(43,260)"/>
<path d="M0 0 C5.96260189 4.82082706 10.96679794 10.22494276 16 16 C15.67 16.66 15.34 17.32 15 18 C14.484375 17.34 13.96875 16.68 13.4375 16 C10.20004245 13.34362457 8.07447719 13.68657868 4 14 C3.67 13.01 3.34 12.02 3 11 C3.66 11 4.32 11 5 11 C4.51428134 6.62853208 3.16325079 4.9591701 0 2 C0 1.34 0 0.68 0 0 Z " fill="#E4DEDB" transform="translate(390,74)"/>
<path d="M0 0 C3.69876091 1.37287342 6.9514476 3.06355453 10.3125 5.125 C11.19550781 5.66382813 12.07851562 6.20265625 12.98828125 6.7578125 C13.65214844 7.16773438 14.31601563 7.57765625 15 8 C12 10 12 10 9 11 C8.896875 10.360625 8.79375 9.72125 8.6875 9.0625 C8.460625 8.381875 8.23375 7.70125 8 7 C7.01 6.67 6.02 6.34 5 6 C4.67 6.33 4.34 6.66 4 7 C3.01 7 2.02 7 1 7 C0.34 5.02 -0.32 3.04 -1 1 C-0.67 0.67 -0.34 0.34 0 0 Z " fill="#E8E4E2" transform="translate(128,397)"/>
<path d="M0 0 C1.32 0.66 2.64 1.32 4 2 C4.08121924 3.60332791 4.13929134 5.20784026 4.1875 6.8125 C4.22230469 7.70582031 4.25710938 8.59914062 4.29296875 9.51953125 C4 12 4 12 2.609375 13.83984375 C1 15 1 15 -0.9375 14.75 C-1.618125 14.5025 -2.29875 14.255 -3 14 C-3.7425 13.814375 -4.485 13.62875 -5.25 13.4375 C-5.8275 13.293125 -6.405 13.14875 -7 13 C-6.4225 12.79375 -5.845 12.5875 -5.25 12.375 C-2.07591433 10.43528098 -0.72820233 8.26438218 1 5 C0.87754191 2.20438833 0.87754191 2.20438833 0 0 Z " fill="#E3E1E0" transform="translate(259,168)"/>
<path d="M0 0 C0 0.33 0 0.66 0 1 C-1.175625 1.12375 -1.175625 1.12375 -2.375 1.25 C-5.14749104 1.72806339 -5.14749104 1.72806339 -6.3125 4.0625 C-6.539375 4.701875 -6.76625 5.34125 -7 6 C-7.33 6 -7.66 6 -8 6 C-8.99 6.33 -9.98 6.66 -11 7 C-11 5.68 -11 4.36 -11 3 C-11.59167969 3.144375 -12.18335938 3.28875 -12.79296875 3.4375 C-16.92529941 4.40822694 -20.7229762 5.27593702 -25 5 C-21.52179367 2.68119578 -18.8416981 2.18192851 -14.75 1.375 C-13.46609375 1.11460938 -12.1821875 0.85421875 -10.859375 0.5859375 C-7.16832367 0.02555521 -3.72587543 -0.1061778 0 0 Z " fill="#E4E0DF" transform="translate(206,15)"/>
<path d="M0 0 C7.03645577 1.88619822 14.03359344 3.86927695 21 6 C17.89602241 6.90953762 15.10489778 7.13464149 11.875 7.125 C10.57175781 7.12886719 10.57175781 7.12886719 9.2421875 7.1328125 C7 7 7 7 5 6 C5 5.34 5 4.68 5 4 C4.360625 3.896875 3.72125 3.79375 3.0625 3.6875 C2.381875 3.460625 1.70125 3.23375 1 3 C0.67 2.01 0.34 1.02 0 0 Z " fill="#E6E1DF" transform="translate(165,416)"/>
<path d="M0 0 C0.33 0.66 0.66 1.32 1 2 C-0.375 4 -0.375 4 -2 6 C-2.66 6 -3.32 6 -4 6 C-4.12375 6.61875 -4.2475 7.2375 -4.375 7.875 C-5 10 -5 10 -7 12 C-8.31747324 12.69748583 -9.64914193 13.36959957 -11 14 C-10.67 12.35 -10.34 10.7 -10 9 C-12.31 8.34 -14.62 7.68 -17 7 C-17 6.34 -17 5.68 -17 5 C-16.33613281 5.10699219 -15.67226563 5.21398437 -14.98828125 5.32421875 C-9.38232494 6.13732229 -9.38232494 6.13732229 -4 4.75 C-1.79344702 2.97282198 -1.79344702 2.97282198 0 0 Z " fill="#E0DBDB" transform="translate(373,282)"/>
<path d="M0 0 C5.80342274 1.48805711 10.17590879 4.59097555 15 8 C12.04044339 8.98651887 10.07135164 9 7 9 C6.01 9.33 5.02 9.66 4 10 C3.67 7.69 3.34 5.38 3 3 C2.01 2.67 1.02 2.34 0 2 C0 1.34 0 0.68 0 0 Z " fill="#EFEBEA" transform="translate(158,125)"/>
<path d="M0 0 C0 3 0 3 -1.5 4.9375 C-3.39211447 7.11411144 -3.39211447 7.11411144 -3 11 C-3.66 10.67 -4.32 10.34 -5 10 C-4.67 11.65 -4.34 13.3 -4 15 C-6.375 16.5625 -6.375 16.5625 -9 18 C-9.66 17.67 -10.32 17.34 -11 17 C-9.56407335 12.88016856 -7.53749031 9.74182002 -4.9375 6.25 C-4.22464844 5.28578125 -3.51179688 4.3215625 -2.77734375 3.328125 C-1 1 -1 1 0 0 Z " fill="#E4DFDD" transform="translate(59,100)"/>
<path d="M0 0 C2.97 1.98 2.97 1.98 6 4 C6 3.34 6 2.68 6 2 C7.32 1.67 8.64 1.34 10 1 C10.33 2.32 10.66 3.64 11 5 C12.65 5 14.3 5 16 5 C14.3125 7.0625 14.3125 7.0625 12 9 C7.41960987 9.24758866 4.6275282 6.312162 1.35546875 3.47265625 C0 2 0 2 0 0 Z " fill="#D5CCCB" transform="translate(245,367)"/>
<path d="M0 0 C1.70884005 1.62339805 3.37446717 3.29319053 5 5 C5 5.66 5 6.32 5 7 C5.66 7 6.32 7 7 7 C8.38232443 8.62626404 9.71937515 10.2925002 11 12 C10.67 12.66 10.34 13.32 10 14 C9.01 13.34 8.02 12.68 7 12 C7 12.66 7 13.32 7 14 C6.34 14 5.68 14 5 14 C5 12.68 5 11.36 5 10 C3.68 9.67 2.36 9.34 1 9 C1.020625 8.071875 1.04125 7.14375 1.0625 6.1875 C1.15769604 2.97713989 1.15769604 2.97713989 0 0 Z " fill="#ECE8E7" transform="translate(79,350)"/>
<path d="M0 0 C1.32 0.66 2.64 1.32 4 2 C3.01 3.485 3.01 3.485 2 5 C1.54028216 9.96495273 1.84934157 13.06167696 5 17 C8.00920562 18.87426816 10.23331649 19.22843187 13.75 19.125 C14.94882812 19.09792969 14.94882812 19.09792969 16.171875 19.0703125 C16.77515625 19.04710937 17.3784375 19.02390625 18 19 C16 21 16 21 12.1875 21.3125 C8.35237573 21.20133698 6.01919511 20.50161881 3 18 C-0.65429922 13.69314734 -0.96288286 8.47477853 -1 3 C-0.67 2.01 -0.34 1.02 0 0 Z " fill="#D0C9C7" transform="translate(273,222)"/>
<path d="M0 0 C3.58806317 3.38872633 6.45684799 6.76141332 9 11 C9 11.66 9 12.32 9 13 C8.01 12.67 7.02 12.34 6 12 C5.67 12.33 5.34 12.66 5 13 C4.01 13 3.02 13 2 13 C1.67 11.68 1.34 10.36 1 9 C1.66 9 2.32 9 3 9 C3 8.01 3 7.02 3 6 C1.05990478 4.29467677 1.05990478 4.29467677 -1 3 C-0.67 2.01 -0.34 1.02 0 0 Z " fill="#E9E6E4" transform="translate(417,106)"/>
<path d="M0 0 C1.8125 1.5625 1.8125 1.5625 3 3 C2.01 3.66 1.02 4.32 0 5 C-0.33 4.34 -0.66 3.68 -1 3 C-3.52733235 2.34444881 -3.52733235 2.34444881 -6 2 C-6.433125 3.134375 -6.86625 4.26875 -7.3125 5.4375 C-7.869375 6.613125 -8.42625 7.78875 -9 9 C-9.99 9.33 -10.98 9.66 -12 10 C-11.49697411 5.59852343 -9.97554199 3.24604581 -7 0 C-4.26634878 -1.36682561 -2.89333621 -0.84683011 0 0 Z " fill="#CCC7C7" transform="translate(387,218)"/>
<path d="M0 0 C6.13450462 1.45290899 11.41082787 4.73678776 16 9 C17.25 12.75 17.25 12.75 17 16 C16.34 16.99 15.68 17.98 15 19 C15 17.80375 15 16.6075 15 15.375 C14.66033677 12.58877695 14.31292485 11.33010211 12.36328125 9.2734375 C10.29587567 7.7376505 8.19458283 6.34713008 6 5 C3.98975009 3.6809052 1.99294787 2.34523981 0 1 C0 0.67 0 0.34 0 0 Z " fill="#C5BEBE" transform="translate(348,197)"/>
<path d="M0 0 C0.99 0.33 1.98 0.66 3 1 C3.6875 3.0625 3.6875 3.0625 4 5 C4.99 5 5.98 5 7 5 C9.1875 6.875 9.1875 6.875 11 9 C11 9.66 11 10.32 11 11 C10.01 11 9.02 11 8 11 C7.67 11.66 7.34 12.32 7 13 C3.74850232 8.72171358 1.41167747 5.26170694 0 0 Z " fill="#E4DFDF" transform="translate(396,124)"/>
<path d="M0 0 C4.46171506 1.57472296 9.79688514 3.59377029 12 8 C12.04022391 10.3329866 12.04320247 12.66706666 12 15 C11.67 15 11.34 15 11 15 C10.938125 14.2575 10.87625 13.515 10.8125 12.75 C9.75814862 9.1814261 8.00090227 8.07754772 5 6 C5.33 5.34 5.66 4.68 6 4 C5.071875 4.309375 5.071875 4.309375 4.125 4.625 C3.42375 4.74875 2.7225 4.8725 2 5 C1.34 4.34 0.68 3.68 0 3 C0 2.01 0 1.02 0 0 Z " fill="#D6D0CE" transform="translate(392,222)"/>
<path d="M0 0 C3.57040303 0.65902299 6.17732255 2.16229158 9.25 4.0625 C10.14203125 4.61035156 11.0340625 5.15820312 11.953125 5.72265625 C12.96632813 6.35494141 12.96632813 6.35494141 14 7 C13.34 7.66 12.68 8.32 12 9 C9.9375 8.8125 9.9375 8.8125 8 8 C7.67 7.01 7.34 6.02 7 5 C5.02 5.66 3.04 6.32 1 7 C1.020625 6.21625 1.04125 5.4325 1.0625 4.625 C1.18684063 2.01885039 1.18684063 2.01885039 0 0 Z " fill="#DCD8D5" transform="translate(311,215)"/>
<path d="M0 0 C2 1 2 1 2.96484375 3.4765625 C3.28582031 4.51554687 3.60679688 5.55453125 3.9375 6.625 C5.07055026 10.20731303 6.21744313 13.6601998 7.8125 17.0625 C9 20 9 20 8 23 C7.32880451 21.5437455 6.66318193 20.08492133 6 18.625 C5.62875 17.81289063 5.2575 17.00078125 4.875 16.1640625 C4 14 4 14 4 12 C2.68 11.34 1.36 10.68 0 10 C0.185625 9.46375 0.37125 8.9275 0.5625 8.375 C1.11419324 5.38009386 0.60597444 2.96254171 0 0 Z " fill="#CDC8C6" transform="translate(50,293)"/>
<path d="M0 0 C3.0625 0.25 3.0625 0.25 6.0625 2.25 C5.7325 2.91 5.4025 3.57 5.0625 4.25 C4.4025 4.25 3.7425 4.25 3.0625 4.25 C3.0625 4.91 3.0625 5.57 3.0625 6.25 C-2.6875 4.5 -2.6875 4.5 -4.9375 2.25 C-2.9375 0.25 -2.9375 0.25 0 0 Z " fill="#F5F2F0" transform="translate(143.9375,432.75)"/>
<path d="M0 0 C0.66 0.33 1.32 0.66 2 1 C1.67 1.66 1.34 2.32 1 3 C1.21527344 3.61359375 1.43054688 4.2271875 1.65234375 4.859375 C2 7 2 7 0.56640625 9.140625 C-0.09488281 9.83671875 -0.75617188 10.5328125 -1.4375 11.25 C-2.09621094 11.95640625 -2.75492187 12.6628125 -3.43359375 13.390625 C-3.95050781 13.92171875 -4.46742187 14.4528125 -5 15 C-5 11.48283697 -4.17554415 10.62878252 -2 8 C-2.66 7.01 -3.32 6.02 -4 5 C-2.68 3.35 -1.36 1.7 0 0 Z " fill="#E1DDDC" transform="translate(92,96)"/>
<path d="M0 0 C6.0546875 -0.1953125 6.0546875 -0.1953125 8 0 C8.66 0.66 9.32 1.32 10 2 C9.67 2.66 9.34 3.32 9 4 C11.31 5.65 13.62 7.3 16 9 C12.00186567 9 9.58095737 7.13405749 6.3125 5.0625 C5.70599609 4.68931641 5.09949219 4.31613281 4.47460938 3.93164062 C2.96202265 2.98733733 1.47813339 1.99737103 0 1 C0 0.67 0 0.34 0 0 Z " fill="#D1CCCA" transform="translate(329,64)"/>
<path d="M0 0 C0.66 0.33 1.32 0.66 2 1 C0.2126038 2.33905267 -1.58004953 3.67109066 -3.375 5 C-4.37273437 5.7425 -5.37046875 6.485 -6.3984375 7.25 C-9 9 -9 9 -11 9 C-10.34 7.02 -9.68 5.04 -9 3 C-8.34 3 -7.68 3 -7 3 C-7 2.34 -7 1.68 -7 1 C-6.34 1 -5.68 1 -5 1 C-5 1.66 -5 2.32 -5 3 C-4.21625 2.484375 -3.4325 1.96875 -2.625 1.4375 C-1.75875 0.963125 -0.8925 0.48875 0 0 Z " fill="#DDD7D4" transform="translate(129,71)"/>
<path d="M0 0 C10.55808656 0.96355353 10.55808656 0.96355353 15 2 C15 2.33 15 2.66 15 3 C11.37 2.67 7.74 2.34 4 2 C4.33 2.33 4.66 2.66 5 3 C4.01 3.495 4.01 3.495 3 4 C3 4.66 3 5.32 3 6 C1.68 6 0.36 6 -1 6 C-0.67 4.02 -0.34 2.04 0 0 Z " fill="#E9E5E2" transform="translate(273,16)"/>
<path d="M0 0 C5.75 -0.125 5.75 -0.125 8 1 C6.55802132 3.88395737 4.29355765 5.76525152 2 8 C1.34 7.67 0.68 7.34 0 7 C0 4.69 0 2.38 0 0 Z " fill="#ECE9E8" transform="translate(368,248)"/>
<path d="M0 0 C0.66 0.33 1.32 0.66 2 1 C-3.94 6.445 -3.94 6.445 -10 12 C-11 8 -11 8 -9.9375 5.875 C-7.4991927 3.51534778 -5.220481 2.95929221 -2 2 C-1.34 1.34 -0.68 0.68 0 0 Z " fill="#DAD5D4" transform="translate(110,85)"/>
<path d="M0 0 C2.40685554 0.46799969 4.77146183 0.93278289 7.125 1.625 C9.21447673 2.2041405 9.21447673 2.2041405 12 1 C12.66 1.66 13.32 2.32 14 3 C13.67 3.33 13.34 3.66 13 4 C14.32 5.32 15.64 6.64 17 8 C13.13747743 7.24470474 9.79819633 5.60515228 6.25 3.9375 C5.07953125 3.38964844 3.9090625 2.84179688 2.703125 2.27734375 C1.81109375 1.85582031 0.9190625 1.43429688 0 1 C0 0.67 0 0.34 0 0 Z " fill="#CCC7C6" transform="translate(312,56)"/>
<path d="M0 0 C3 3.75 3 3.75 3 6 C4.32 5.34 5.64 4.68 7 4 C7 4.66 7 5.32 7 6 C7.66 6.33 8.32 6.66 9 7 C7.68 7.33 6.36 7.66 5 8 C5.350625 8.763125 5.70125 9.52625 6.0625 10.3125 C7 13 7 13 6 16 C4.99303432 13.89915791 3.9946411 11.79420511 3 9.6875 C2.443125 8.51574219 1.88625 7.34398437 1.3125 6.13671875 C0 3 0 3 0 0 Z " fill="#DDD6D7" transform="translate(29,316)"/>
<path d="M0 0 C4.30764815 1.56641751 8.06171464 3.68336156 12 6 C8.25 7.125 8.25 7.125 6 6 C5.67 5.67 5.34 5.34 5 5 C2.94603274 5.40929986 2.94603274 5.40929986 1 6 C0.4465236 3.92446352 0 2.15634036 0 0 Z " fill="#E5E1E0" transform="translate(354,240)"/>
<path d="M0 0 C-2.77280706 3.08089673 -5.06326356 4.68775452 -9 6 C-9 4.02 -9 2.04 -9 0 C-5.52176885 -1.15941038 -3.54104422 -0.70820884 0 0 Z " fill="#EAE4E2" transform="translate(275,362)"/>
<path d="M0 0 C1.39214652 4.17643955 -0.29335734 6.83437793 -1.9375 10.6875 C-2.22818359 11.38939453 -2.51886719 12.09128906 -2.81835938 12.81445312 C-3.53710313 14.54650775 -4.26745331 16.27373781 -5 18 C-5.66 17.34 -6.32 16.68 -7 16 C-6.67 15.01 -6.34 14.02 -6 13 C-5.29102682 10.47920648 -5 8.65901975 -5 6 C-4.01 6 -3.02 6 -2 6 C-1.34 4.02 -0.68 2.04 0 0 Z " fill="#D9D4D1" transform="translate(57,156)"/>
<path d="M0 0 C0.66 0.33 1.32 0.66 2 1 C1.67 1.61875 1.34 2.2375 1 2.875 C-0.14193235 4.91018344 -0.14193235 4.91018344 0 7 C0.66 7.33 1.32 7.66 2 8 C-0.97 8.66 -3.94 9.32 -7 10 C-7 9.34 -7 8.68 -7 8 C-6.34 8 -5.68 8 -5 8 C-4.731875 7.4225 -4.46375 6.845 -4.1875 6.25 C-2.98280141 3.9674132 -1.59201885 2.0262058 0 0 Z " fill="#DEDADB" transform="translate(94,134)"/>
<path d="M0 0 C1.9375 0.8125 1.9375 0.8125 4 2 C5 5 5 5 5 9 C3.68 9.33 2.36 9.66 1 10 C0.63720544 8.71073008 0.28503302 7.41846728 -0.0625 6.125 C-0.35833984 5.04605469 -0.35833984 5.04605469 -0.66015625 3.9453125 C-1 2 -1 2 0 0 Z " fill="#F0EEEC" transform="translate(384,69)"/>
<path d="M0 0 C1.98 0 3.96 0 6 0 C6.33 0.66 6.66 1.32 7 2 C9.52733235 2.65555119 9.52733235 2.65555119 12 3 C11.67 3.99 11.34 4.98 11 6 C11.99 6.33 12.98 6.66 14 7 C13.01 7.495 13.01 7.495 12 8 C9.1796875 6.6015625 9.1796875 6.6015625 5.875 4.625 C4.77929688 3.97789062 3.68359375 3.33078125 2.5546875 2.6640625 C1.71164063 2.11492187 0.86859375 1.56578125 0 1 C0 0.67 0 0.34 0 0 Z " fill="#DFD9D9" transform="translate(122,426)"/>
<path d="M0 0 C0.66 0 1.32 0 2 0 C3.32 2.31 4.64 4.62 6 7 C3.66666667 9.33333333 1.33333333 11.66666667 -1 14 C-1.99 13.67 -2.98 13.34 -4 13 C-2.02 11.35 -0.04 9.7 2 8 C1.47731534 5.23723823 0.89130413 2.6739124 0 0 Z " fill="#CDC6C4" transform="translate(353,379)"/>
<path d="M0 0 C0.78375 0.639375 1.5675 1.27875 2.375 1.9375 C5.9830964 4.77243289 7.61304482 5.12034558 12.125 5.0625 C13.03507813 5.05347656 13.94515625 5.04445312 14.8828125 5.03515625 C15.58148438 5.02355469 16.28015625 5.01195312 17 5 C16.67 5.66 16.34 6.32 16 7 C14.41705218 7.05437607 12.83355744 7.09296271 11.25 7.125 C10.36828125 7.14820313 9.4865625 7.17140625 8.578125 7.1953125 C5.8864142 6.99139502 4.30095026 6.36551721 2 5 C2 5.66 2 6.32 2 7 C0 6 0 6 -1 4 C-0.34 4 0.32 4 1 4 C0.67 2.68 0.34 1.36 0 0 Z " fill="#D0C9C9" transform="translate(234,213)"/>
<path d="M0 0 C1.41377341 2.63904371 2.37240135 5.07120629 3 8 C-0.46941546 7.54177532 -3.67395049 7.10868317 -7 6 C-6.67 5.34 -6.34 4.68 -6 4 C-5.360625 3.855625 -4.72125 3.71125 -4.0625 3.5625 C-1.61789145 3.13834965 -1.61789145 3.13834965 0 0 Z " fill="#D9D7D6" transform="translate(181,130)"/>
<path d="M0 0 C0.825 0.20625 1.65 0.4125 2.5 0.625 C3.49 0.625 4.48 0.625 5.5 0.625 C1.80827405 4.16290403 -1.59390595 4.21615883 -6.5 4.625 C-5.25918606 0.90255819 -4.07369673 -0.61105451 0 0 Z " fill="#EBE4E2" transform="translate(260.5,368.375)"/>
<path d="M0 0 C0.66 0 1.32 0 2 0 C0.90931332 3.77545388 0.0916909 6.47043472 -3 9 C-3 8.01 -3 7.02 -3 6 C-3.66 6 -4.32 6 -5 6 C-5.33 4.68 -5.66 3.36 -6 2 C-4.7934375 1.7834375 -4.7934375 1.7834375 -3.5625 1.5625 C-1.07896294 1.25864751 -1.07896294 1.25864751 0 0 Z " fill="#E8E3E3" transform="translate(430,341)"/>
<path d="M0 0 C1.485 0.99 1.485 0.99 3 2 C3 2.99 3 3.98 3 5 C4.32 5.33 5.64 5.66 7 6 C7 8.62113708 6.68707555 10.50935112 6 13 C4.99491199 11.21118264 3.99607264 9.41885304 3 7.625 C2.1646875 6.12839844 2.1646875 6.12839844 1.3125 4.6015625 C0 2 0 2 0 0 Z " fill="#DFDAD9" transform="translate(37,334)"/>
<path d="M0 0 C1.13199353 0.9080162 2.25532363 1.82683826 3.375 2.75 C4.00148438 3.26046875 4.62796875 3.7709375 5.2734375 4.296875 C7.08312318 6.08199481 8.00117455 7.67949644 9 10 C7.68 9.01 6.36 8.02 5 7 C3.02 7.99 3.02 7.99 1 9 C1.020625 8.071875 1.04125 7.14375 1.0625 6.1875 C1.15769604 2.97713989 1.15769604 2.97713989 0 0 Z " fill="#DFD6D5" transform="translate(393,262)"/>
<path d="M0 0 C2.19510603 0.25361783 4.38228739 0.57765908 6.5625 0.9375 C8.35880859 1.22947266 8.35880859 1.22947266 10.19140625 1.52734375 C11.11824219 1.68332031 12.04507812 1.83929688 13 2 C13 2.33 13 2.66 13 3 C12.31292969 3.13277344 11.62585938 3.26554687 10.91796875 3.40234375 C9.56638672 3.66724609 9.56638672 3.66724609 8.1875 3.9375 C6.84751953 4.19853516 6.84751953 4.19853516 5.48046875 4.46484375 C2.88602829 4.97741153 2.88602829 4.97741153 0 6 C-0.38218767 4.34385343 -0.71395102 2.67542976 -1 1 C-0.67 0.67 -0.34 0.34 0 0 Z " fill="#DFD7D4" transform="translate(354,264)"/>
<path d="M0 0 C3.09592835 3.5087188 4.74194623 6.49197399 6 11 C4.68 10.67 3.36 10.34 2 10 C1.67 8.68 1.34 7.36 1 6 C0.34 6.66 -0.32 7.32 -1 8 C-1.93065133 5.39417629 -2.14917407 4.35801776 -1.0625 1.75 C-0.711875 1.1725 -0.36125 0.595 0 0 Z " fill="#E5E2E0" transform="translate(426,119)"/>
<path d="M0 0 C2.79872437 2.52788007 4.45773019 4.20411134 5 8 C4.01 8.66 3.02 9.32 2 10 C1.01 9.67 0.02 9.34 -1 9 C-0.7525 7.329375 -0.7525 7.329375 -0.5 5.625 C0.0455458 2.27967967 0.0455458 2.27967967 0 0 Z " fill="#E3E0DF" transform="translate(73,341)"/>
<path d="M0 0 C0.598125 0.165 1.19625 0.33 1.8125 0.5 C4.25988354 1.05940195 5.63996734 0.75858193 8 0 C4.484375 4.6875 4.484375 4.6875 3 6 C1.68 6 0.36 6 -1 6 C-1.042721 4.33388095 -1.04063832 2.66617115 -1 1 C-0.67 0.67 -0.34 0.34 0 0 Z " fill="#E6E2E1" transform="translate(154,152)"/>
<path d="M0 0 C1.60031344 3.20062687 0.03173691 5.72271806 -1 9 C-1.99 9 -2.98 9 -4 9 C-4.33 10.65 -4.66 12.3 -5 14 C-5.66 14 -6.32 14 -7 14 C-5.53967505 8.68972746 -3.01679014 4.53669968 0 0 Z " fill="#DBD4D2" transform="translate(47,117)"/>
<path d="M0 0 C2.64 0 5.28 0 8 0 C5.43969702 2.56030298 2.78054973 3.65972186 -0.5 5.1875 C-1.6653125 5.73792969 -2.830625 6.28835937 -4.03125 6.85546875 C-5.0109375 7.23316406 -5.990625 7.61085938 -7 8 C-7.66 7.67 -8.32 7.34 -9 7 C-8.43410156 6.66226563 -7.86820313 6.32453125 -7.28515625 5.9765625 C-6.55167969 5.53054687 -5.81820312 5.08453125 -5.0625 4.625 C-4.33160156 4.18414062 -3.60070312 3.74328125 -2.84765625 3.2890625 C-0.86227728 2.1226016 -0.86227728 2.1226016 0 0 Z " fill="#CCC5C4" transform="translate(154,55)"/>
<path d="M0 0 C0.33 0.66 0.66 1.32 1 2 C-0.18879853 5.02772126 -1.81595342 7.59384699 -4 10 C-7.8125 11 -7.8125 11 -11 11 C-11 10.34 -11 9.68 -11 9 C-9.02 8.67 -7.04 8.34 -5 8 C-4.67 6.35 -4.34 4.7 -4 3 C-3.01 3 -2.02 3 -1 3 C-0.67 2.01 -0.34 1.02 0 0 Z " fill="#D5CDCB" transform="translate(362,216)"/>
<path d="M0 0 C0.99 0.33 1.98 0.66 3 1 C2.71758359 2.46015291 2.42373386 3.91809793 2.125 5.375 C1.96257812 6.18710937 1.80015625 6.99921875 1.6328125 7.8359375 C1 10 1 10 -1 12 C-0.67 9.69 -0.34 7.38 0 5 C-0.66 4.67 -1.32 4.34 -2 4 C-1 1 -1 1 0 0 Z " fill="#E3DFDE" transform="translate(443,308)"/>
<path d="M0 0 C0.60328125 0.34804687 1.2065625 0.69609375 1.828125 1.0546875 C0.54288239 1.91849009 -0.75029919 2.77049119 -2.046875 3.6171875 C-2.76617187 4.09285156 -3.48546875 4.56851563 -4.2265625 5.05859375 C-4.86851562 5.38730469 -5.51046875 5.71601562 -6.171875 6.0546875 C-6.831875 5.7246875 -7.491875 5.3946875 -8.171875 5.0546875 C-7.181875 4.7246875 -6.191875 4.3946875 -5.171875 4.0546875 C-5.171875 3.3946875 -5.171875 2.7346875 -5.171875 2.0546875 C-5.831875 1.7246875 -6.491875 1.3946875 -7.171875 1.0546875 C-2.70649038 -1.17800481 -2.70649038 -1.17800481 0 0 Z " fill="#E2DBD7" transform="translate(139.171875,64.9453125)"/>
<path d="M0 0 C0.66 0.33 1.32 0.66 2 1 C1 4 1 4 -2 6 C-4.32387947 6.39387788 -6.65793749 6.73486085 -9 7 C-6.25604436 4.05278838 -3.61662784 1.80831392 0 0 Z " fill="#E0D5D5" transform="translate(121,44)"/>
<path d="M0 0 C0.66 0.33 1.32 0.66 2 1 C2 1.66 2 2.32 2 3 C2.99 3.33 3.98 3.66 5 4 C-0.91260345 4.25706972 -6.23918159 3.2982126 -12 2 C-12 1.67 -12 1.34 -12 1 C-7.83861737 0.91840426 -4.0527516 1.01751476 0 2 C0 1.34 0 0.68 0 0 Z " fill="#DFD8D8" transform="translate(203,452)"/>
<path d="M0 0 C2.475 0.99 2.475 0.99 5 2 C4.649375 2.61875 4.29875 3.2375 3.9375 3.875 C3.4734375 4.926875 3.4734375 4.926875 3 6 C3.33 6.66 3.66 7.32 4 8 C2.0625 7.3125 2.0625 7.3125 0 6 C-0.8125 3.4375 -0.8125 3.4375 -1 1 C-0.67 0.67 -0.34 0.34 0 0 Z " fill="#F0ECEA" transform="translate(128,397)"/>
<path d="M0 0 C0.99 0.33 1.98 0.66 3 1 C2.01 1.33 1.02 1.66 0 2 C-1.09166275 3.93330603 -1.09166275 3.93330603 -2 6 C-2.66 6.66 -3.32 7.32 -4 8 C-4.66 6.02 -5.32 4.04 -6 2 C-3 2 -3 2 -1 3 C-0.67 2.01 -0.34 1.02 0 0 Z " fill="#DBD4D4" transform="translate(232,153)"/>
<path d="M0 0 C0.66 0 1.32 0 2 0 C2.28875 1.0725 2.5775 2.145 2.875 3.25 C3.72820109 6.09400364 4.5636503 8.43508983 6 11 C5.01 11.99 4.02 12.98 3 14 C3.0928125 12.88625 3.0928125 12.88625 3.1875 11.75 C3.24729518 8.95181641 3.24729518 8.95181641 1.5 7 C-0.36762594 4.50983207 -0.2532832 3.03939845 0 0 Z " fill="#C2BABC" transform="translate(179,116)"/>
<path d="M0 0 C-3.08809695 1.76462683 -4.23312136 2 -8 2 C-7.67 2.99 -7.34 3.98 -7 5 C-7.99 5 -8.98 5 -10 5 C-10.33 4.67 -10.66 4.34 -11 4 C-12.32594105 3.63837971 -13.65938457 3.30271961 -15 3 C-13.06643218 2.30151736 -11.12797702 1.61655186 -9.1875 0.9375 C-8.10855469 0.55464844 -7.02960938 0.17179687 -5.91796875 -0.22265625 C-3 -1 -3 -1 0 0 Z " fill="#DEDAD9" transform="translate(304,418)"/>
<path d="M0 0 C0.66 0.33 1.32 0.66 2 1 C1.773125 1.5775 1.54625 2.155 1.3125 2.75 C0.73494807 5.12172477 0.73494807 5.12172477 2.4375 7.25 C2.953125 7.8275 3.46875 8.405 4 9 C3.67 9.66 3.34 10.32 3 11 C0.69 8.36 -1.62 5.72 -4 3 C-3 1 -3 1 0 0 Z " fill="#D8D0CF" transform="translate(238,353)"/>
<path d="M0 0 C1.32 0 2.64 0 4 0 C3.54917531 1.46067199 3.08906463 2.91848032 2.625 4.375 C2.36976563 5.18710937 2.11453125 5.99921875 1.8515625 6.8359375 C1 9 1 9 -1 11 C-1.02688151 9.35425434 -1.04634123 7.70838587 -1.0625 6.0625 C-1.07410156 5.14597656 -1.08570313 4.22945313 -1.09765625 3.28515625 C-1 1 -1 1 0 0 Z " fill="#E2DEDC" transform="translate(438,320)"/>
<path d="M0 0 C2.00047023 2.54605302 3.82572785 4.9664636 5 8 C4.67 8.99 4.34 9.98 4 11 C2.35 10.01 0.7 9.02 -1 8 C-0.67 5.36 -0.34 2.72 0 0 Z " fill="#DCD6D5" transform="translate(435,135)"/>
<path d="M0 0 C4.43090471 1.20842856 6.98112756 2.51668565 10 6 C8.02 6.33 6.04 6.66 4 7 C3.896875 6.360625 3.79375 5.72125 3.6875 5.0625 C3.460625 4.381875 3.23375 3.70125 3 3 C2.01 2.67 1.02 2.34 0 2 C0 1.34 0 0.68 0 0 Z " fill="#DEDAD7" transform="translate(158,125)"/>
<path d="M0 0 C1.70884005 1.62339805 3.37446717 3.29319053 5 5 C5 5.66 5 6.32 5 7 C5.66 7 6.32 7 7 7 C6.67 7.66 6.34 8.32 6 9 C4.35 9 2.7 9 1 9 C1.020625 8.071875 1.04125 7.14375 1.0625 6.1875 C1.15769604 2.97713989 1.15769604 2.97713989 0 0 Z " fill="#E5E1DF" transform="translate(79,350)"/>
<path d="M0 0 C3.08089673 2.77280706 4.68775452 5.06326356 6 9 C2.48283697 9 1.62878252 8.17554415 -1 6 C-0.34 5.01 0.32 4.02 1 3 C0.67 2.01 0.34 1.02 0 0 Z " fill="#DDD9D8" transform="translate(67,332)"/>
<path d="M0 0 C-1.93108963 1.03290841 -3.870118 2.05098672 -5.8125 3.0625 C-6.89144531 3.63097656 -7.97039062 4.19945312 -9.08203125 4.78515625 C-12 6 -12 6 -15 5 C-13.58671871 4.18162558 -12.16921654 3.37053781 -10.75 2.5625 C-9.56664062 1.88380859 -9.56664062 1.88380859 -8.359375 1.19140625 C-3.01482702 -1.50741351 -3.01482702 -1.50741351 0 0 Z " fill="#DBD6D4" transform="translate(338,434)"/>
<path d="M0 0 C0.99 0.66 1.98 1.32 3 2 C3.6875 5.625 3.6875 5.625 4 9 C1.33264727 6.51047079 -0.55746343 4.36591866 -2 1 C-1.34 0.67 -0.68 0.34 0 0 Z " fill="#DED9D7" transform="translate(51,355)"/>
<path d="M0 0 C1.65 0.33 3.3 0.66 5 1 C2.6875 3.5 2.6875 3.5 0 6 C-0.99 6 -1.98 6 -3 6 C-2 4 -1 2 0 0 Z " fill="#E9E3E3" transform="translate(363,413)"/>
<path d="M0 0 C0.99 0 1.98 0 3 0 C3 1.65 3 3.3 3 5 C1.68 5.33 0.36 5.66 -1 6 C-1.625 4.125 -1.625 4.125 -2 2 C-1.34 1.34 -0.68 0.68 0 0 Z " fill="#E5E1E0" transform="translate(176,168)"/>
<path d="M0 0 C0.66 0.33 1.32 0.66 2 1 C0.35 3.64 -1.3 6.28 -3 9 C-5 6 -5 6 -5 2 C-3.68 2.33 -2.36 2.66 -1 3 C-0.67 2.01 -0.34 1.02 0 0 Z " fill="#DED9D8" transform="translate(69,133)"/>
<path d="M0 0 C1.65 0 3.3 0 5 0 C6.4606285 2.64738916 7 3.89448334 7 7 C6.34 7 5.68 7 5 7 C0 1.4047619 0 1.4047619 0 0 Z " fill="#D9D4D4" transform="translate(371,95)"/>
<path d="M0 0 C0.556875 0.309375 1.11375 0.61875 1.6875 0.9375 C4.12540433 2.05761821 6.36224186 2.56037364 9 3 C9 4.65 9 6.3 9 8 C8.01 7.67 7.02 7.34 6 7 C6 6.34 6 5.68 6 5 C5.38125 4.731875 4.7625 4.46375 4.125 4.1875 C2 3 2 3 0 0 Z " fill="#D5CECF" transform="translate(362,87)"/>
<path d="M0 0 C4.875 2.75 4.875 2.75 6 5 C4.35 5.66 2.7 6.32 1 7 C0 2.25 0 2.25 0 0 Z " fill="#EAE6E3" transform="translate(112,385)"/>
<path d="M0 0 C0.94875 0.350625 1.8975 0.70125 2.875 1.0625 C5.87060172 2.35026777 5.87060172 2.35026777 8 1 C7.67 2.32 7.34 3.64 7 5 C5.68 5.33 4.36 5.66 3 6 C2.01 4.02 1.02 2.04 0 0 Z " fill="#DAD2D2" transform="translate(288,201)"/>
<path d="M0 0 C0.99 0.66 1.98 1.32 3 2 C3 2.66 3 3.32 3 4 C1 5.625 1 5.625 -1 7 C-1.66 6.01 -2.32 5.02 -3 4 C-2.01 2.68 -1.02 1.36 0 0 Z " fill="#EEECE9" transform="translate(245,360)"/>
<path d="M0 0 C4.875 4.625 4.875 4.625 6 8 C6.99 8.33 7.98 8.66 9 9 C8.34 9.66 7.68 10.32 7 11 C5.82750647 9.54634731 4.66216184 8.08692581 3.5 6.625 C2.52546875 5.40683594 2.52546875 5.40683594 1.53125 4.1640625 C0 2 0 2 0 0 Z " fill="#CEC9C9" transform="translate(226,343)"/>
<path d="M0 0 C1.32 1.32 2.64 2.64 4 4 C3 7 3 7 0 10 C0 6.7 0 3.4 0 0 Z " fill="#F3F0EF" transform="translate(219,184)"/>
<path d="M0 0 C2.125 0.375 2.125 0.375 4 1 C4 2.32 4 3.64 4 5 C1.13275314 4.42655063 0.1385485 4.1385485 -2 2 C-1.34 1.34 -0.68 0.68 0 0 Z " fill="#E9E5E3" transform="translate(141,433)"/>
<path d="M0 0 C0.66 0.99 1.32 1.98 2 3 C3.32 3 4.64 3 6 3 C4.35 4.65 2.7 6.3 1 8 C-1 5 -1 5 -0.625 2.3125 C-0.41875 1.549375 -0.2125 0.78625 0 0 Z " fill="#D7D1D2" transform="translate(345,221)"/>
<path d="M0 0 C1.32 0.33 2.64 0.66 4 1 C4.33 2.32 4.66 3.64 5 5 C3.02 5.99 3.02 5.99 1 7 C1.020625 6.21625 1.04125 5.4325 1.0625 4.625 C1.18684063 2.01885039 1.18684063 2.01885039 0 0 Z " fill="#EDE8E7" transform="translate(311,215)"/>
<path d="M0 0 C0.99 0.33 1.98 0.66 3 1 C1.02 3.97 1.02 3.97 -1 7 C-1.66 6.67 -2.32 6.34 -3 6 C-2.42655063 3.13275314 -2.1385485 2.1385485 0 0 Z " fill="#F4EFED" transform="translate(342,196)"/>
<path d="M0 0 C1.98 0.99 1.98 0.99 4 2 C3.67 4.31 3.34 6.62 3 9 C2.01 8.67 1.02 8.34 0 8 C0.185625 7.236875 0.37125 6.47375 0.5625 5.6875 C1.22819173 2.91032625 1.22819173 2.91032625 0 0 Z " fill="#C9BFC0" transform="translate(259,168)"/>
<path d="M0 0 C3.48539917 0.64544429 6.02819057 2.10134397 9 4 C6.45297384 5.27351308 5.5717055 4.80191925 2.875 4.0625 C2.15054688 3.86785156 1.42609375 3.67320312 0.6796875 3.47265625 C0.12539062 3.31667969 -0.42890625 3.16070312 -1 3 C-0.67 2.01 -0.34 1.02 0 0 Z " fill="#D4CFCD" transform="translate(202,151)"/>
<path d="M0 0 C0 2.83967231 -0.40267181 5.23735711 -1 8 C-1.99 7.67 -2.98 7.34 -4 7 C-3.39816251 4.97954558 -2.72693904 2.97888961 -2 1 C-1.34 0.67 -0.68 0.34 0 0 Z " fill="#F7F4F3" transform="translate(39,136)"/>
<path d="M0 0 C1.32 0 2.64 0 4 0 C2.70700306 2.88437779 1.34058637 4.87219421 -1 7 C-1.04254356 5.00045254 -1.04080783 2.99958364 -1 1 C-0.67 0.67 -0.34 0.34 0 0 Z " fill="#E7DBDA" transform="translate(410,369)"/>
<path d="M0 0 C5.875 3.75 5.875 3.75 7 6 C3 6 3 6 1.25 4.6875 C0 3 0 3 0 0 Z " fill="#E0DDDA" transform="translate(377,63)"/>
<path d="M0 0 C0.66 0.33 1.32 0.66 2 1 C-0.97 3.475 -0.97 3.475 -4 6 C-4 4.68 -4 3.36 -4 2 C-2.125 0.9375 -2.125 0.9375 0 0 Z " fill="#E6E2E2" transform="translate(399,385)"/>
<path d="M0 0 C0.66 0 1.32 0 2 0 C1.67 1.65 1.34 3.3 1 5 C0.01 5.33 -0.98 5.66 -2 6 C-1.125 1.125 -1.125 1.125 0 0 Z " fill="#DCD6D6" transform="translate(377,222)"/>
<path d="M0 0 C2.56687367 3.8503105 1.83288724 5.58569763 1 10 C-0.85064319 6.87703962 -1.29356154 4.62059232 -1 1 C-0.67 0.67 -0.34 0.34 0 0 Z " fill="#DDD8D7" transform="translate(363,206)"/>
<path d="M0 0 C0.598125 0.20625 1.19625 0.4125 1.8125 0.625 C0.1625 1.945 -1.4875 3.265 -3.1875 4.625 C-3.8475 3.635 -4.5075 2.645 -5.1875 1.625 C-2.1875 -0.375 -2.1875 -0.375 0 0 Z " fill="#F0ECE9" transform="translate(198.1875,176.375)"/>
<path d="M0 0 C1.32 0 2.64 0 4 0 C4 1.32 4 2.64 4 4 C4.66 4.66 5.32 5.32 6 6 C5.01 6.33 4.02 6.66 3 7 C2.01 4.69 1.02 2.38 0 0 Z " fill="#D8CFCF" transform="translate(224,161)"/>
<path d="M0 0 C1.65 1.65 3.3 3.3 5 5 C4.67 5.66 4.34 6.32 4 7 C2.35 5.68 0.7 4.36 -1 3 C-0.67 2.01 -0.34 1.02 0 0 Z " fill="#E2DEDC" transform="translate(417,106)"/>
</svg>
